<svg width="38" height="34" viewBox="0 0 38 34" fill="none" xmlns="http://www.w3.org/2000/svg">
<path opacity="0.4" d="M25.4222 29.4842C28.1941 27.4711 30.377 25.3858 32.0498 23.3046L22.3024 12.454C21.9034 12.0099 21.2354 11.9143 20.7237 12.2281L16.867 14.5931C15.5098 15.4254 13.7484 15.2381 12.6045 14.1399C11.0934 12.6892 11.2458 10.2607 12.9269 9.00296L18.9641 4.48606L17.1397 3.14704C14.6592 1.31931 10.5301 0.171878 5.79923 3.01918C-0.409541 6.75596 -1.81443 19.0837 12.5068 29.4842C15.2345 31.4652 16.5984 32.4557 18.9645 32.4557C21.3305 32.4557 22.6944 31.4652 25.4222 29.4842Z" fill="#D26A30"/>
<path fill-rule="evenodd" clip-rule="evenodd" d="M17.9339 2.10908C17.9336 2.10884 17.9342 2.10932 17.9339 2.10908L18.9639 2.86506L19.9944 2.10908C19.994 2.10939 19.9948 2.10877 19.9944 2.10908C22.8446 0.00956563 27.563 -1.25196 32.8212 1.91269C38.7505 5.48125 40.3499 15.0743 33.0884 24.1086C31.3352 26.2899 29.0649 28.4538 26.209 30.5279C26.1473 30.5727 26.0862 30.6171 26.0255 30.6612C23.465 32.5218 21.7693 33.7541 18.9641 33.7541C16.159 33.7541 14.4633 32.5218 11.9028 30.6612C11.8421 30.6171 11.781 30.5727 11.7193 30.5279C4.34575 25.173 0.864013 19.2035 0.142559 13.9255C-0.575431 8.67288 1.47071 4.10127 5.10709 1.91269C10.3654 -1.25206 15.0837 0.00943934 17.9339 2.10908ZM16.7684 4.49614L16.3448 4.18526C14.234 2.62987 10.6936 1.59645 6.49074 4.12594C3.91835 5.67414 2.15766 9.1348 2.76533 13.5804C3.36954 18.0006 6.34595 23.3953 13.2936 28.4409C16.0848 30.468 17.1036 31.1576 18.9641 31.1576C20.8247 31.1576 21.8435 30.468 24.6347 28.4409C26.9465 26.7619 28.8199 25.0427 30.3121 23.334L21.3599 13.3688L17.568 15.6941C15.6929 16.844 13.2593 16.5852 11.6788 15.0679C9.5911 13.0636 9.80172 9.7085 12.1243 7.97076L16.7684 4.49614ZM31.96 21.2417C37.4636 13.4335 35.315 6.45958 31.4376 4.12594C27.2347 1.59645 23.6943 2.62987 21.5835 4.18526L21.5813 4.18688L19.7611 5.52226L13.7289 10.0354C12.6893 10.8132 12.5951 12.315 13.5295 13.2121C14.2369 13.8912 15.3262 14.007 16.1655 13.4924L20.0221 11.1273C21.0829 10.4768 22.4675 10.675 23.2946 11.5958L31.96 21.2417Z" fill="#D26A30"/>
</svg>
