<svg width="126" height="42" viewBox="0 0 126 42" fill="none" xmlns="http://www.w3.org/2000/svg">
<g clip-path="url(#clip0_58817_2326)">
<g clip-path="url(#clip1_58817_2326)">
<path d="M24.2086 34.9245C24.1554 34.9644 24.0769 34.9158 24.0756 34.8493C23.8935 25.4738 16.6761 17.2286 6.1873 16.7921C6.04981 16.7864 5.96744 16.6165 6.06475 16.5192C9.17074 13.4133 12.2767 10.3073 15.375 7.1936C15.5518 7.01677 15.7056 6.96295 15.9439 7.02446C24.1164 9.13099 29.9593 13.8899 32.9654 21.8855C33.3421 22.885 33.565 23.9459 33.8418 24.9838C33.8725 25.0991 33.8264 25.299 33.7418 25.3836C30.5667 28.5665 27.3915 31.7493 24.2086 34.9245Z" fill="#FEFEFE"/>
<path d="M5.96094 21.0009C6.72206 20.2014 7.48318 19.3787 8.28274 18.5869C8.39806 18.4715 8.69021 18.4792 8.88241 18.5177C10.6045 18.8406 12.2344 19.4556 13.772 20.2936C18.4464 22.8691 21.2525 26.8131 22.3519 32.0102C22.4134 32.3024 22.3596 32.5023 22.1444 32.7252C21.4063 33.4479 20.6913 34.2013 19.9609 34.9471C19.9456 34.9625 19.9225 34.9702 19.8687 35.0009C19.7072 31.1953 18.5233 27.8126 15.7632 25.1217C13.0186 22.4463 9.66659 21.1931 5.96094 21.0009Z" fill="#FEFEFE"/>
<path d="M15.6304 34.9867C15.4305 28.6594 10.3564 25.3151 5.82812 25.2228C5.95113 25.0922 6.02802 24.9922 6.12027 24.8999C6.75069 24.2849 7.39649 23.6775 8.01154 23.0394C8.26525 22.7704 8.50358 22.7088 8.84954 22.8088C13.4086 24.0927 16.4531 26.945 17.9292 31.4733C18.1598 32.1959 18.1137 32.6957 17.4986 33.1954C16.8375 33.7259 16.2609 34.3717 15.6304 34.9867Z" fill="#FEFEFE"/>
<path d="M11.4157 34.9229C11.2235 31.7016 8.84784 29.6258 5.8418 29.4259C5.92637 29.326 5.99556 29.2414 6.06475 29.1645C6.72593 28.5187 7.3871 27.8806 8.04059 27.2271C8.20973 27.0503 8.3558 27.0272 8.57875 27.1118C11.1466 28.0421 12.8226 29.8488 13.7682 32.3704C13.8067 32.4627 13.7913 32.6395 13.7298 32.701C12.9533 33.4545 12.1768 34.1925 11.4157 34.9229Z" fill="#FEFEFE"/>
</g>
<path d="M119.608 27.7138V21.9621C119.608 21.3133 119.447 20.8077 119.126 20.4453C118.804 20.077 118.369 19.8929 117.819 19.8929C117.48 19.8929 117.176 19.9718 116.907 20.1296C116.638 20.2816 116.425 20.5096 116.267 20.8135C116.109 21.1116 116.03 21.4682 116.03 21.8832L115.092 21.3308C115.086 20.6762 115.233 20.1004 115.531 19.6036C115.835 19.1009 116.244 18.7092 116.758 18.4287C117.273 18.1481 117.845 18.0078 118.477 18.0078C119.523 18.0078 120.324 18.3235 120.879 18.9547C121.44 19.5802 121.721 20.4044 121.721 21.4273V27.7138H119.608ZM108.218 27.7138V18.2445H110.086V21.1818H110.349V27.7138H108.218ZM113.926 27.7138V21.9884C113.926 21.3279 113.765 20.8135 113.444 20.4453C113.122 20.077 112.684 19.8929 112.129 19.8929C111.591 19.8929 111.158 20.077 110.831 20.4453C110.51 20.8135 110.349 21.2928 110.349 21.8832L109.402 21.2519C109.402 20.6382 109.554 20.0858 109.858 19.5948C110.162 19.1038 110.571 18.718 111.085 18.4374C111.606 18.151 112.187 18.0078 112.83 18.0078C113.537 18.0078 114.128 18.1598 114.601 18.4637C115.081 18.7618 115.437 19.171 115.671 19.6912C115.911 20.2056 116.03 20.7872 116.03 21.4361V27.7138H113.926Z" fill="#FEFEFE"/>
<path d="M100.808 27.9872C100.106 27.9872 99.5278 27.8703 99.0719 27.6365C98.6159 27.4027 98.2535 27.1046 97.9846 26.7422C97.7158 26.3798 97.517 25.994 97.3884 25.5848C97.2598 25.1756 97.1751 24.7898 97.1341 24.4274C97.0991 24.0592 97.0815 23.7611 97.0815 23.5331V18.2461H99.2209V22.8054C99.2209 23.0977 99.2414 23.4279 99.2823 23.7962C99.3232 24.1586 99.4167 24.5093 99.5628 24.8483C99.7148 25.1815 99.9369 25.4562 100.229 25.6725C100.527 25.8888 100.928 25.9969 101.43 25.9969C101.699 25.9969 101.965 25.9531 102.228 25.8654C102.491 25.7777 102.728 25.6286 102.938 25.4182C103.155 25.2019 103.327 24.9068 103.456 24.5327C103.584 24.1586 103.649 23.6851 103.649 23.1123L104.902 23.6471C104.902 24.4537 104.745 25.1844 104.429 25.8391C104.119 26.4937 103.66 27.0169 103.052 27.4085C102.445 27.7943 101.696 27.9872 100.808 27.9872ZM103.903 27.7154V24.7782H103.649V18.2461H105.771V27.7154H103.903Z" fill="#FEFEFE"/>
<path d="M90.2534 27.7172V18.2479H92.121V20.5539L91.893 20.2558C92.0099 19.9401 92.1648 19.6537 92.3577 19.3965C92.5564 19.1335 92.7932 18.9172 93.0679 18.7477C93.3017 18.5899 93.5589 18.4671 93.8395 18.3795C94.1259 18.2859 94.4182 18.2304 94.7163 18.2129C95.0144 18.1895 95.3037 18.2012 95.5843 18.2479V20.2207C95.3037 20.1389 94.9793 20.1126 94.6111 20.1418C94.2486 20.171 93.9213 20.2733 93.629 20.4487C93.3368 20.6065 93.0971 20.8082 92.9101 21.0537C92.7289 21.2992 92.5944 21.5797 92.5068 21.8954C92.4191 22.2052 92.3752 22.5413 92.3752 22.9037V27.7172H90.2534Z" fill="#FEFEFE"/>
<path d="M88.215 27.7169C87.5896 27.8338 86.9758 27.8834 86.3738 27.8659C85.7775 27.8542 85.2427 27.7461 84.7692 27.5415C84.2958 27.3311 83.9363 27.0008 83.6908 26.5507C83.4745 26.1416 83.3605 25.7236 83.3488 25.2969C83.3371 24.8702 83.3313 24.388 83.3313 23.8502V15.6172H85.4356V23.7275C85.4356 24.1074 85.4385 24.4406 85.4444 24.727C85.456 25.0134 85.5174 25.2472 85.6285 25.4284C85.8389 25.7792 86.175 25.975 86.6368 26.0159C87.0986 26.0568 87.6246 26.0334 88.215 25.9457V27.7169ZM81.6128 19.9047V18.2475H88.215V19.9047H81.6128Z" fill="#FEFEFE"/>
<path d="M76.6944 27.9778C75.7182 27.9778 74.8853 27.7615 74.1955 27.329C73.5058 26.8906 72.9768 26.2944 72.6085 25.5403C72.2461 24.7863 72.062 23.9329 72.0562 22.9801C72.062 22.0098 72.252 21.1505 72.6261 20.4024C73.006 19.6483 73.5438 19.0579 74.2394 18.6312C74.9349 18.1987 75.762 17.9824 76.7207 17.9824C77.7962 17.9824 78.7051 18.2542 79.4475 18.7978C80.1957 19.3356 80.6837 20.0721 80.9117 21.0073L78.8074 21.5772C78.6437 21.0687 78.3719 20.6742 77.992 20.3936C77.6121 20.1072 77.1795 19.964 76.6944 19.964C76.1449 19.964 75.6919 20.0955 75.3353 20.3585C74.9788 20.6157 74.7157 20.9723 74.5462 21.4282C74.3767 21.8841 74.292 22.4014 74.292 22.9801C74.292 23.8803 74.4936 24.608 74.8969 25.1633C75.3003 25.7186 75.8994 25.9963 76.6944 25.9963C77.2555 25.9963 77.6968 25.8677 78.0183 25.6105C78.3456 25.3533 78.5911 24.9821 78.7548 24.497L80.9117 24.9792C80.6194 25.9437 80.108 26.686 79.3773 27.2062C78.6467 27.7206 77.7523 27.9778 76.6944 27.9778Z" fill="#FEFEFE"/>
<path d="M66.3345 27.9778C65.3759 27.9778 64.5342 27.7703 63.8094 27.3553C63.0846 26.9403 62.5176 26.3645 62.1084 25.628C61.7051 24.8915 61.5034 24.0439 61.5034 23.0853C61.5034 22.0507 61.7022 21.1535 62.0996 20.3936C62.4971 19.6279 63.0495 19.0346 63.7568 18.6137C64.464 18.1929 65.2824 17.9824 66.2118 17.9824C67.1938 17.9824 68.0267 18.2133 68.7106 18.6751C69.4004 19.131 69.9118 19.7769 70.245 20.6128C70.5782 21.4487 70.7038 22.4336 70.622 23.5676H68.5265V22.796C68.5206 21.7672 68.3394 21.0161 67.9829 20.5426C67.6263 20.0692 67.0652 19.8324 66.2994 19.8324C65.4343 19.8324 64.7914 20.1013 64.3705 20.6391C63.9497 21.171 63.7392 21.9513 63.7392 22.9801C63.7392 23.9387 63.9497 24.6811 64.3705 25.2071C64.7914 25.7332 65.4051 25.9963 66.2118 25.9963C66.732 25.9963 67.1792 25.8823 67.5532 25.6543C67.9332 25.4205 68.2255 25.0844 68.43 24.646L70.5168 25.2773C70.1544 26.1307 69.5932 26.7941 68.8334 27.2676C68.0793 27.7411 67.2464 27.9778 66.3345 27.9778ZM63.0729 23.5676V21.9718H69.5874V23.5676H63.0729Z" fill="#FEFEFE"/>
<path d="M55.7766 27.9778C54.853 27.9778 54.0785 27.7586 53.4531 27.3202C52.8276 26.8818 52.3571 26.2856 52.0414 25.5316C51.7258 24.7717 51.568 23.9212 51.568 22.9801C51.568 22.0273 51.7258 21.1739 52.0414 20.4199C52.3571 19.6659 52.8189 19.0726 53.4268 18.64C54.0405 18.2016 54.7975 17.9824 55.6976 17.9824C56.592 17.9824 57.3665 18.2016 58.0211 18.64C58.6816 19.0726 59.1931 19.6659 59.5555 20.4199C59.9179 21.1681 60.0991 22.0215 60.0991 22.9801C60.0991 23.927 59.9208 24.7775 59.5643 25.5316C59.2077 26.2856 58.705 26.8818 58.0562 27.3202C57.4074 27.7586 56.6475 27.9778 55.7766 27.9778ZM51.2085 31.9233V18.2455H53.0761V24.8915H53.3391V31.9233H51.2085ZM55.4521 26.0839C56.0016 26.0839 56.4546 25.9466 56.8112 25.6718C57.1677 25.3971 57.4308 25.0259 57.6003 24.5583C57.7756 24.0849 57.8633 23.5588 57.8633 22.9801C57.8633 22.4073 57.7756 21.887 57.6003 21.4194C57.4249 20.946 57.1531 20.5719 56.7849 20.2971C56.4166 20.0166 55.949 19.8763 55.382 19.8763C54.8442 19.8763 54.4058 20.0078 54.0668 20.2708C53.7278 20.528 53.4765 20.8904 53.3128 21.3581C53.155 21.8198 53.0761 22.3605 53.0761 22.9801C53.0761 23.5939 53.155 24.1345 53.3128 24.6022C53.4765 25.0698 53.7307 25.4351 54.0756 25.6982C54.4263 25.9553 54.8852 26.0839 55.4521 26.0839Z" fill="#FEFEFE"/>
<path d="M44.3756 27.9777C43.452 27.9777 42.6191 27.817 41.8767 27.4955C41.1402 27.174 40.5323 26.7151 40.053 26.1189C39.5795 25.5169 39.2785 24.8038 39.1499 23.9796L41.3419 23.6464C41.5289 24.3946 41.9118 24.9733 42.4905 25.3824C43.075 25.7916 43.7472 25.9962 44.5071 25.9962C44.9572 25.9962 45.3809 25.926 45.7784 25.7858C46.1759 25.6455 46.4974 25.4409 46.7429 25.172C46.9942 24.9031 47.1199 24.5729 47.1199 24.1812C47.1199 24.0059 47.0907 23.8451 47.0322 23.699C46.9738 23.547 46.8861 23.4126 46.7692 23.2957C46.6581 23.1788 46.512 23.0736 46.3308 22.98C46.1554 22.8807 45.9508 22.7959 45.717 22.7258L42.4554 21.7613C42.1748 21.6795 41.8709 21.5713 41.5435 21.4369C41.222 21.2966 40.9152 21.1066 40.6229 20.867C40.3365 20.6215 40.0998 20.3117 39.9127 19.9376C39.7315 19.5576 39.6409 19.09 39.6409 18.5347C39.6409 17.7222 39.8455 17.0413 40.2547 16.4918C40.6697 15.9365 41.225 15.5215 41.9205 15.2468C42.622 14.972 43.3994 14.8376 44.2528 14.8434C45.1179 14.8493 45.8895 14.9983 46.5675 15.2906C47.2456 15.577 47.8126 15.995 48.2685 16.5444C48.7244 17.0939 49.0459 17.7573 49.233 18.5347L46.9621 18.9293C46.8686 18.485 46.6873 18.108 46.4185 17.7982C46.1554 17.4826 45.831 17.2429 45.4452 17.0793C45.0653 16.9156 44.659 16.8279 44.2265 16.8162C43.8056 16.8104 43.414 16.8747 43.0516 17.0091C42.695 17.1377 42.4057 17.3248 42.1836 17.5703C41.9673 17.8158 41.8592 18.1022 41.8592 18.4295C41.8592 18.7393 41.9527 18.9936 42.1397 19.1923C42.3268 19.3852 42.5577 19.5401 42.8324 19.657C43.113 19.7681 43.3965 19.8616 43.6829 19.9376L45.945 20.5689C46.2548 20.6507 46.6026 20.7618 46.9884 20.902C47.3742 21.0423 47.7453 21.2381 48.1019 21.4895C48.4585 21.7408 48.7507 22.0711 48.9787 22.4803C49.2125 22.8894 49.3294 23.4097 49.3294 24.0409C49.3294 24.6956 49.192 25.2714 48.9173 25.7682C48.6484 26.2592 48.2831 26.6684 47.8213 26.9957C47.3596 27.3231 46.8306 27.5686 46.2343 27.7322C45.644 27.8959 45.0244 27.9777 44.3756 27.9777Z" fill="#FEFEFE"/>
</g>
<defs>
<clipPath id="clip0_58817_2326">
<rect width="126" height="42" fill="white"/>
</clipPath>
<clipPath id="clip1_58817_2326">
<rect width="28.0231" height="28" fill="white" transform="translate(5.82812 7)"/>
</clipPath>
</defs>
</svg>
