<svg width="126" height="42" viewBox="0 0 126 42" fill="none" xmlns="http://www.w3.org/2000/svg">
<g clip-path="url(#clip0_58817_2309)">
<path d="M33.738 34.7591C33.738 34.899 33.6113 35.0001 33.4713 35.0001C32.2624 35.0001 31.0705 35.0001 29.8747 35.0001C29.3593 35.0001 28.9414 34.5822 28.9414 34.0668C28.9414 30.0214 28.9414 25.9858 28.9414 21.9193C28.9414 21.7106 29.159 21.5728 29.3431 21.671C30.709 22.4584 32.0748 23.2538 33.4407 24.0331C33.6255 24.1376 33.746 24.234 33.746 24.483C33.738 27.9057 33.738 31.3284 33.738 34.7591Z" fill="#FEFEFE"/>
<path d="M28.394 18.9354C28.394 19.6543 27.6153 20.1035 26.9928 19.7438C25.8992 19.1119 24.8247 18.4911 23.7581 17.8704C23.6778 17.8222 23.6055 17.6856 23.6055 17.5892C23.6055 14.0861 23.6055 10.5831 23.6135 7.08012C23.6135 7.03443 23.6684 7.00781 23.7141 7.00781C24.9566 7.00781 26.2041 7.00781 27.4606 7.00781C27.9761 7.00781 28.394 7.42568 28.394 7.94115C28.394 11.5949 28.394 15.2424 28.394 18.9354Z" fill="#FEFEFE"/>
<path d="M30.316 19.7548C29.6936 20.1142 28.9148 19.6651 28.9143 18.9464C28.9134 17.6929 28.9145 16.4711 28.9314 15.2533C28.9314 15.1087 29.1001 14.9078 29.2448 14.8195C31.8801 13.2849 34.5234 11.7664 37.1587 10.2398C37.2656 10.1781 37.3719 10.1163 37.4788 10.0541C37.9194 9.79793 38.481 9.95048 38.7362 10.3915C39.2291 11.243 39.7193 12.095 40.2182 12.9588C40.4761 13.4052 40.324 13.9765 39.8777 14.2347C36.6979 16.0744 33.5251 17.9015 30.316 19.7548Z" fill="#FEFEFE"/>
<path d="M19.1613 32.3453C19.0948 32.3662 19.016 32.3395 18.9811 32.2791C18.3592 31.2048 17.7418 30.1346 17.1134 29.0455C16.8557 28.599 17.0088 28.0282 17.4553 27.7705C20.886 25.7908 24.3086 23.8148 27.7773 21.8098C28.0616 21.6455 28.4173 21.8507 28.4173 22.1791C28.4173 23.6815 28.4253 25.1759 28.4092 26.6783C28.4092 26.831 28.3128 27.056 28.1923 27.1202C25.1917 28.8692 22.1831 30.6022 19.1825 32.3352C19.174 32.3401 19.1708 32.3424 19.1613 32.3453Z" fill="#FEFEFE"/>
<path d="M30.5691 21.8126C29.9466 21.4537 29.9455 20.555 30.567 20.1944C31.1909 19.8322 31.8026 19.4774 32.4143 19.1252C32.7597 18.9244 33.1293 18.7556 33.4507 18.5146C33.8283 18.2334 34.1336 18.2897 34.5273 18.5146C37.3554 20.1697 40.1916 21.8007 43.0277 23.4397C43.1978 23.5479 43.2534 23.7709 43.1529 23.9455C42.5705 24.9565 41.9874 25.9648 41.3974 26.9862C41.1396 27.4325 40.5689 27.5856 40.1225 27.3279C36.9437 25.4932 33.7765 23.6619 30.5691 21.8126Z" fill="#FEFEFE"/>
<path d="M26.763 20.1948C27.3842 20.5543 27.384 21.4515 26.7627 21.8109C25.663 22.4471 24.5891 23.0668 23.5072 23.6786C23.4188 23.7268 23.242 23.7187 23.1456 23.6625C20.1327 21.9351 17.1198 20.1916 14.1149 18.4482C14.0337 18.4075 14.0341 18.289 14.0796 18.2104C14.6954 17.1465 15.3069 16.0865 15.9292 15.008C16.1872 14.5609 16.7592 14.4082 17.2059 14.667C20.3912 16.5128 23.5596 18.341 26.763 20.1948Z" fill="#FEFEFE"/>
</g>
<path d="M108.172 27.6769C107.443 27.6769 106.826 27.5398 106.322 27.2657C105.817 26.9854 105.434 26.6147 105.172 26.1536C104.917 25.6926 104.789 25.1849 104.789 24.6304C104.789 24.1444 104.87 23.7083 105.032 23.3221C105.194 22.9296 105.443 22.5931 105.78 22.3128C106.116 22.0262 106.552 21.7926 107.088 21.6119C107.493 21.4811 107.966 21.3627 108.508 21.2568C109.057 21.1509 109.649 21.0543 110.284 20.9671C110.926 20.8736 111.595 20.774 112.293 20.668L111.49 21.126C111.496 20.4282 111.34 19.9142 111.022 19.584C110.705 19.2538 110.169 19.0887 109.415 19.0887C108.96 19.0887 108.521 19.1946 108.097 19.4064C107.674 19.6183 107.378 19.9827 107.209 20.4998L105.154 19.855C105.403 19.0015 105.876 18.3162 106.574 17.7991C107.278 17.282 108.225 17.0234 109.415 17.0234C110.312 17.0234 111.1 17.1698 111.779 17.4627C112.465 17.7555 112.972 18.2352 113.302 18.9018C113.483 19.2569 113.592 19.6214 113.63 19.9952C113.667 20.3628 113.686 20.7646 113.686 21.2007V27.3966H111.714V25.2098L112.041 25.5649C111.586 26.2938 111.053 26.8296 110.443 27.1723C109.839 27.5087 109.082 27.6769 108.172 27.6769ZM108.621 25.8826C109.131 25.8826 109.568 25.7923 109.929 25.6116C110.29 25.431 110.577 25.2098 110.789 24.9481C111.007 24.6865 111.153 24.4404 111.228 24.2099C111.346 23.9233 111.412 23.5962 111.424 23.2286C111.443 22.8548 111.452 22.5526 111.452 22.3221L112.144 22.5277C111.465 22.6336 110.882 22.7271 110.396 22.8081C109.91 22.8891 109.493 22.967 109.144 23.0417C108.795 23.1102 108.487 23.1881 108.219 23.2753C107.957 23.3688 107.736 23.4778 107.555 23.6024C107.375 23.727 107.234 23.8703 107.135 24.0323C107.041 24.1943 106.995 24.3843 106.995 24.6024C106.995 24.8516 107.057 25.0727 107.181 25.2659C107.306 25.4528 107.487 25.6023 107.723 25.7144C107.966 25.8266 108.265 25.8826 108.621 25.8826Z" fill="#FEFEFE"/>
<path d="M100.659 27.3959V21.2654C100.659 20.5739 100.488 20.035 100.145 19.6487C99.8022 19.2562 99.3381 19.06 98.7525 19.06C98.3911 19.06 98.0672 19.1441 97.7806 19.3123C97.494 19.4743 97.2666 19.7173 97.0984 20.0412C96.9302 20.359 96.8461 20.739 96.8461 21.1813L95.8461 20.5926C95.8399 19.8948 95.9957 19.2812 96.3134 18.7516C96.6374 18.2158 97.0735 17.7984 97.6217 17.4993C98.17 17.2003 98.7805 17.0508 99.4534 17.0508C100.569 17.0508 101.422 17.3872 102.014 18.0601C102.612 18.7267 102.911 19.6051 102.911 20.6954V27.3959H100.659ZM88.5195 27.3959V17.3031H90.51V20.4337H90.7904V27.3959H88.5195ZM94.6032 27.3959V21.2935C94.6032 20.5895 94.4319 20.0412 94.0892 19.6487C93.7466 19.2562 93.2793 19.06 92.6875 19.06C92.1143 19.06 91.6533 19.2562 91.3044 19.6487C90.9617 20.0412 90.7904 20.5521 90.7904 21.1813L89.7811 20.5085C89.7811 19.8543 89.9431 19.2656 90.2671 18.7423C90.591 18.2189 91.0271 17.8077 91.5754 17.5087C92.1299 17.2034 92.7498 17.0508 93.4351 17.0508C94.1889 17.0508 94.8182 17.2128 95.3228 17.5367C95.8337 17.8545 96.2137 18.2906 96.4629 18.845C96.7183 19.3933 96.8461 20.0132 96.8461 20.7047V27.3959H94.6032Z" fill="#FEFEFE"/>
<path d="M81.2643 32.1626C80.7036 32.1626 80.1647 32.0754 79.6476 31.9009C79.1368 31.7265 78.6757 31.4741 78.2646 31.144C77.8534 30.82 77.5169 30.4275 77.2553 29.9665L79.3299 28.9385C79.523 29.3061 79.794 29.5771 80.1429 29.7515C80.498 29.9322 80.875 30.0225 81.2737 30.0225C81.7409 30.0225 82.1584 29.9384 82.5259 29.7702C82.8935 29.6082 83.177 29.3653 83.3763 29.0413C83.5819 28.7236 83.6785 28.3248 83.666 27.8451V24.9762H83.9464V17.3038H85.9182V27.8825C85.9182 28.1379 85.9058 28.3809 85.8808 28.6114C85.8622 28.8482 85.8279 29.0787 85.778 29.303C85.6285 29.9571 85.3419 30.4929 84.9183 30.9103C84.4946 31.334 83.9682 31.6486 83.339 31.8542C82.716 32.0598 82.0244 32.1626 81.2643 32.1626ZM81.0681 27.6769C80.1398 27.6769 79.3299 27.4433 78.6384 26.976C77.9468 26.5088 77.411 25.8733 77.031 25.0696C76.651 24.2659 76.4609 23.3594 76.4609 22.3502C76.4609 21.3284 76.651 20.4188 77.031 19.6214C77.4173 18.8177 77.9624 18.1854 78.6664 17.7243C79.3704 17.2571 80.199 17.0234 81.1522 17.0234C82.1116 17.0234 82.9153 17.2571 83.5633 17.7243C84.2174 18.1854 84.7127 18.8177 85.0491 19.6214C85.3856 20.4251 85.5538 21.3347 85.5538 22.3502C85.5538 23.3532 85.3856 24.2597 85.0491 25.0696C84.7127 25.8733 84.2112 26.5088 83.5446 26.976C82.8779 27.4433 82.0525 27.6769 81.0681 27.6769ZM81.4139 25.6584C82.0182 25.6584 82.5041 25.5213 82.8717 25.2472C83.2455 24.9668 83.5165 24.5774 83.6847 24.079C83.8592 23.5806 83.9464 23.0043 83.9464 22.3502C83.9464 21.6898 83.8592 21.1135 83.6847 20.6213C83.5165 20.1229 83.2517 19.7366 82.8904 19.4625C82.5291 19.1822 82.0618 19.042 81.4886 19.042C80.8843 19.042 80.3859 19.1915 79.9934 19.4906C79.6009 19.7834 79.3112 20.1821 79.1243 20.6867C78.9374 21.1851 78.8439 21.7396 78.8439 22.3502C78.8439 22.967 78.9343 23.5277 79.115 24.0323C79.3019 24.5307 79.5853 24.9263 79.9654 25.2191C80.3454 25.5119 80.8282 25.6584 81.4139 25.6584Z" fill="#FEFEFE"/>
<path d="M71.9668 15.7704V13.7051H74.219V15.7704H71.9668ZM71.9668 27.3957V17.303H74.219V27.3957H71.9668Z" fill="#FEFEFE"/>
<path d="M67.062 27.3942V22.5347C67.062 22.217 67.0402 21.865 66.9966 21.4787C66.953 21.0924 66.8502 20.7217 66.6882 20.3666C66.5325 20.0053 66.2957 19.7094 65.978 19.4788C65.6665 19.2483 65.2428 19.1331 64.707 19.1331C64.4205 19.1331 64.137 19.1798 63.8566 19.2732C63.5763 19.3667 63.3208 19.5287 63.0903 19.7592C62.866 19.9835 62.6854 20.295 62.5483 20.6937C62.4112 21.0862 62.3427 21.5908 62.3427 22.2076L61.0064 21.6376C61.0064 20.7778 61.1715 19.9991 61.5017 19.3013C61.8381 18.6035 62.3303 18.049 62.9782 17.6378C63.6261 17.2204 64.4236 17.0117 65.3705 17.0117C66.1182 17.0117 66.7349 17.1363 67.2209 17.3855C67.7068 17.6347 68.0931 17.9525 68.3797 18.3387C68.6663 18.725 68.8781 19.1362 69.0152 19.5723C69.1522 20.0084 69.2394 20.4227 69.2768 20.8152C69.3204 21.2015 69.3422 21.5161 69.3422 21.7591V27.3942H67.062ZM60.0625 27.3942V17.3014H62.0717V20.432H62.3427V27.3942H60.0625Z" fill="#FEFEFE"/>
<path d="M49.1504 27.3965V13.9395H57.8414V16.0515H51.4026V19.369H56.72V21.481H51.4026V25.2845H57.8414V27.3965H49.1504Z" fill="#FEFEFE"/>
<defs>
<clipPath id="clip0_58817_2309">
<rect width="29.3337" height="28" fill="white" transform="translate(14 7)"/>
</clipPath>
</defs>
</svg>
