<svg width="126" height="42" viewBox="0 0 126 42" fill="none" xmlns="http://www.w3.org/2000/svg">
<g clip-path="url(#clip0_58817_2260)">
<path d="M16.3242 20.9922C16.3242 24.8571 17.933 28.5808 20.762 31.2332C21.6213 29.7775 21.8999 27.9451 21.3937 26.0931C20.6953 23.5269 18.6785 21.6239 16.3242 20.9922Z" fill="#FEFEFE"/>
<path d="M17.0479 16.5879C16.6987 17.6356 16.475 18.7028 16.3809 19.7622C19.6415 20.0879 22.4078 23.843 22.7295 28.6064C22.8237 29.9954 22.6942 31.3256 22.3921 32.5341C23.1258 33.0403 23.9184 33.4758 24.7659 33.8446C25.2133 31.6238 25.1976 29.1675 24.6247 26.6877C23.5064 21.8418 20.544 18.126 17.0479 16.584V16.5879Z" fill="#FEFEFE"/>
<path d="M32.1472 14.2597C35.6864 15.0562 39.155 14.5304 41.8428 13.0433C41.3406 12.3135 40.7677 11.6308 40.1281 11.0069C37.6954 12.9649 33.6068 13.3651 29.6948 11.7367C27.6545 10.8892 25.9712 9.61396 24.7783 8.15039C24.4056 8.31127 24.0368 8.48783 23.6797 8.68402C25.4454 11.3286 28.451 13.4279 32.1472 14.2597Z" fill="#FEFEFE"/>
<path d="M44.1713 23.0767C44.2851 22.3115 44.3361 21.5425 44.3243 20.7812C41.4011 21.7033 38.631 23.8496 36.7672 26.9612C35.3507 29.3272 34.6719 31.8894 34.6758 34.3065C35.0054 34.2005 35.3271 34.0828 35.6489 33.9533C35.9393 31.7521 37.1046 29.233 39.043 26.9886C40.6007 25.1837 42.4095 23.8496 44.1713 23.0806V23.0767Z" fill="#FEFEFE"/>
<path d="M42.9609 14.9823C39.0136 16.7872 32.9749 16.6106 26.9912 14.123C24.7075 13.1734 22.6593 11.9806 20.9132 10.6426C19.7754 11.6745 18.7944 12.9027 18.0332 14.3113C22.5534 16.2143 26.2496 23.2065 26.8264 31.7681C26.8891 32.7216 26.9127 33.6594 26.897 34.5776C28.8236 35.068 30.7815 35.1269 32.661 34.8051C32.9435 30.8657 34.9643 26.216 38.5153 22.1078C40.1672 20.1969 41.9799 18.6 43.8359 17.3483C43.6162 16.5361 43.3258 15.7435 42.9609 14.9823ZM30.7658 26.0434C25.1391 26.0434 25.147 17.313 30.7658 17.313C36.3847 17.313 36.3847 26.0434 30.7658 26.0434Z" fill="#FEFEFE"/>
<path d="M32.8085 11.5901C35.045 12.0021 37.3012 11.3704 39.0433 10.0441C38.0506 9.25546 36.9363 8.58449 35.7042 8.0744C33.04 6.9679 30.2266 6.74424 27.5898 7.27395C28.3981 9.4438 30.2894 11.1271 32.8085 11.5901Z" fill="#FEFEFE"/>
<path d="M43.4005 25.9844C41.3444 26.31 39.308 27.6834 38.0092 29.8454C37.3226 30.9911 36.938 32.2114 36.8203 33.4003C39.618 31.9367 41.9408 29.5197 43.2474 26.3768C43.3024 26.2473 43.3495 26.1139 43.4005 25.9844Z" fill="#FEFEFE"/>
</g>
<path d="M99.6152 28.046L103.468 22.7203L99.6933 17.5117H102.463L104.834 20.8768L107.165 17.5117H109.935L106.16 22.7203L110.032 28.046H107.262L104.834 24.5638L102.385 28.046H99.6152Z" fill="#FEFEFE"/>
<path d="M94.2182 28.3402C93.1518 28.3402 92.2154 28.1094 91.409 27.6477C90.6027 27.186 89.972 26.5455 89.5168 25.7262C89.0681 24.9068 88.8438 23.9639 88.8438 22.8975C88.8438 21.7465 89.0648 20.7484 89.507 19.903C89.9492 19.0512 90.5637 18.3912 91.3505 17.923C92.1373 17.4548 93.0477 17.2207 94.0816 17.2207C95.1741 17.2207 96.1007 17.4776 96.8615 17.9913C97.6288 18.4985 98.1978 19.217 98.5685 20.1469C98.9391 21.0768 99.0789 22.1725 98.9879 23.434H96.6567V22.5756C96.6502 21.4312 96.4486 20.5956 96.0519 20.0689C95.6553 19.5421 95.031 19.2788 94.1792 19.2788C93.2168 19.2788 92.5015 19.5779 92.0333 20.1762C91.5651 20.7679 91.331 21.636 91.331 22.7805C91.331 23.8469 91.5651 24.6727 92.0333 25.258C92.5015 25.8432 93.1843 26.1358 94.0816 26.1358C94.6604 26.1358 95.1578 26.009 95.574 25.7554C95.9967 25.4953 96.3218 25.1214 96.5494 24.6337L98.8708 25.336C98.4677 26.2854 97.8434 27.0234 96.9981 27.5502C96.1592 28.0769 95.2326 28.3402 94.2182 28.3402ZM90.5897 23.434V21.6588H97.8369V23.434H90.5897Z" fill="#FEFEFE"/>
<path d="M87.7002 28.0464C87.0044 28.1765 86.3216 28.2317 85.6519 28.2122C84.9886 28.1992 84.3936 28.0789 83.8669 27.8513C83.3402 27.6172 82.9403 27.2498 82.6672 26.7491C82.4266 26.294 82.2998 25.829 82.2868 25.3543C82.2738 24.8796 82.2672 24.3432 82.2672 23.7449V14.5859H84.6082V23.6084C84.6082 24.031 84.6115 24.4017 84.618 24.7203C84.631 25.0389 84.6992 25.299 84.8228 25.5006C85.0569 25.8908 85.4308 26.1086 85.9445 26.1541C86.4582 26.1997 87.0434 26.1737 87.7002 26.0761V28.0464ZM80.3555 19.3556V17.5121H87.7002V19.3556H80.3555Z" fill="#FEFEFE"/>
<path d="M73.7324 28.0453V17.511H75.81V20.0763L75.5564 19.7447C75.6865 19.3935 75.8588 19.0749 76.0734 18.7888C76.2945 18.4962 76.5578 18.2556 76.8634 18.067C77.1236 17.8914 77.4097 17.7549 77.7218 17.6573C78.0404 17.5533 78.3656 17.4915 78.6972 17.472C79.0288 17.446 79.3507 17.459 79.6628 17.511V19.7056C79.3507 19.6146 78.9898 19.5854 78.5801 19.6179C78.177 19.6504 77.8128 19.7642 77.4877 19.9593C77.1626 20.1348 76.896 20.3592 76.6879 20.6323C76.4863 20.9054 76.3367 21.2175 76.2392 21.5687C76.1417 21.9133 76.0929 22.2872 76.0929 22.6904V28.0453H73.7324Z" fill="#FEFEFE"/>
<path d="M66.3277 28.3402C65.2743 28.3402 64.3542 28.1029 63.5674 27.6282C62.7805 27.1535 62.1693 26.5 61.7336 25.6676C61.3044 24.8288 61.0898 23.8664 61.0898 22.7805C61.0898 21.675 61.3109 20.7061 61.7531 19.8738C62.1953 19.0414 62.8098 18.3912 63.5966 17.923C64.3834 17.4548 65.2938 17.2207 66.3277 17.2207C67.3877 17.2207 68.311 17.458 69.0979 17.9327C69.8847 18.4074 70.4959 19.0642 70.9316 19.903C71.3673 20.7354 71.5851 21.6945 71.5851 22.7805C71.5851 23.8729 71.364 24.8386 70.9218 25.6774C70.4862 26.5097 69.8749 27.1632 69.0881 27.6379C68.3013 28.1061 67.3812 28.3402 66.3277 28.3402ZM66.3277 26.1358C67.2641 26.1358 67.9599 25.8237 68.4151 25.1994C68.8703 24.5752 69.0979 23.7689 69.0979 22.7805C69.0979 21.7595 68.867 20.9467 68.4053 20.342C67.9436 19.7307 67.2511 19.4251 66.3277 19.4251C65.697 19.4251 65.1768 19.5682 64.7671 19.8543C64.3639 20.1339 64.0648 20.5273 63.8697 21.0345C63.6746 21.5352 63.5771 22.1172 63.5771 22.7805C63.5771 23.8014 63.8079 24.6175 64.2696 25.2287C64.7378 25.8335 65.4239 26.1358 66.3277 26.1358Z" fill="#FEFEFE"/>
<path d="M53.5025 28.0457L49.0742 14H51.4932L55.1997 25.7633L58.955 14H61.374L56.9457 28.0457H53.5025Z" fill="#FEFEFE"/>
<defs>
<clipPath id="clip0_58817_2260">
<rect width="28" height="28" fill="white" transform="translate(16.3242 7)"/>
</clipPath>
</defs>
</svg>
