<svg width="126" height="42" viewBox="0 0 126 42" fill="none" xmlns="http://www.w3.org/2000/svg">
<g clip-path="url(#clip0_58817_2278)">
<path fill-rule="evenodd" clip-rule="evenodd" d="M14.03 30.2773C7.18623 24.2161 8.09379 14.3765 14.956 9.50073C19.7763 6.07887 27.1155 5.65751 31.7875 11.4918C35.0983 15.6267 35.3251 21.5722 33.2276 25.1607C31.9125 27.4018 28.8935 29.0595 27.046 26.8462C25.3652 24.8366 27.2405 23.0539 27.898 20.7063C30.2456 12.2929 18.6002 6.33355 12.4649 14.4275C9.33473 18.5578 9.51069 24.9246 14.03 30.2773Z" fill="#FEFEFE"/>
<path fill-rule="evenodd" clip-rule="evenodd" d="M35.4996 11.9219C42.2044 18.1405 41.07 27.9569 34.0966 32.6707C29.1977 35.9814 21.8539 36.2314 17.3161 30.2953C14.0979 26.0816 14.01 20.1316 16.1909 16.5939C17.5568 14.3852 20.6129 12.7924 22.4141 15.052C24.0487 17.0987 22.127 18.8397 21.4186 21.1688C18.8811 29.5313 30.383 35.7591 36.7035 27.8041C39.9263 23.7479 39.8985 17.3719 35.5043 11.9219H35.4996Z" fill="#FEFEFE"/>
</g>
<path d="M109.211 31.8523L111.115 26.6254L111.152 28.1633L106.84 17.5723H109.138L112.195 25.408H111.609L114.584 17.5723H116.79L111.28 31.8523H109.211Z" fill="#FEFEFE"/>
<path d="M106.053 27.4585C105.4 27.5805 104.76 27.6324 104.131 27.6141C103.508 27.6019 102.95 27.489 102.456 27.2754C101.961 27.0557 101.586 26.7109 101.33 26.241C101.104 25.8138 100.985 25.3775 100.973 24.932C100.961 24.4865 100.955 23.9831 100.955 23.4216V14.8262H103.151V23.2935C103.151 23.6901 103.155 24.038 103.161 24.337C103.173 24.636 103.237 24.8801 103.353 25.0693C103.573 25.4355 103.923 25.6399 104.406 25.6826C104.888 25.7254 105.437 25.7009 106.053 25.6094V27.4585ZM99.1604 19.3024V17.5723H106.053V19.3024H99.1604Z" fill="#FEFEFE"/>
<path d="M95.3088 16.0679V14.0449H97.5149V16.0679H95.3088ZM95.3088 27.4553V17.5692H97.5149V27.4553H95.3088Z" fill="#FEFEFE"/>
<path d="M89.161 27.7323C88.1419 27.7323 87.2722 27.5065 86.5521 27.0549C85.832 26.5972 85.2798 25.9747 84.8953 25.1875C84.5169 24.4003 84.3247 23.5093 84.3186 22.5146C84.3247 21.5015 84.523 20.6045 84.9136 19.8233C85.3103 19.0361 85.8717 18.4197 86.5979 17.9743C87.3241 17.5227 88.1876 17.2969 89.1885 17.2969C90.3113 17.2969 91.2603 17.5806 92.0353 18.1482C92.8164 18.7096 93.326 19.4785 93.564 20.455L91.3671 21.05C91.1962 20.519 90.9124 20.1071 90.5158 19.8142C90.1191 19.5152 89.6675 19.3656 89.161 19.3656C88.5873 19.3656 88.1144 19.503 87.7421 19.7776C87.3699 20.0461 87.0953 20.4183 86.9183 20.8943C86.7413 21.3703 86.6528 21.9104 86.6528 22.5146C86.6528 23.4544 86.8634 24.2141 87.2845 24.7939C87.7055 25.3736 88.331 25.6635 89.161 25.6635C89.7468 25.6635 90.2076 25.5292 90.5432 25.2607C90.885 24.9922 91.1413 24.6047 91.3121 24.0982L93.564 24.6016C93.2589 25.6086 92.7249 26.3836 91.9621 26.9267C91.1992 27.4637 90.2656 27.7323 89.161 27.7323Z" fill="#FEFEFE"/>
<path d="M77.9139 27.7323C76.9253 27.7323 76.0618 27.5095 75.3234 27.064C74.585 26.6185 74.0113 26.0052 73.6024 25.2241C73.1997 24.4369 72.9983 23.5337 72.9983 22.5146C72.9983 21.4771 73.2058 20.5678 73.6208 19.7867C74.0357 19.0056 74.6124 18.3953 75.3508 17.956C76.0892 17.5166 76.9436 17.2969 77.9139 17.2969C78.9086 17.2969 79.7752 17.5196 80.5136 17.9651C81.252 18.4106 81.8257 19.027 82.2345 19.8142C82.6434 20.5953 82.8478 21.4954 82.8478 22.5146C82.8478 23.5398 82.6403 24.446 82.2254 25.2333C81.8165 26.0144 81.2429 26.6277 80.5044 27.0732C79.766 27.5126 78.9025 27.7323 77.9139 27.7323ZM77.9139 25.6635C78.7927 25.6635 79.4457 25.3706 79.8728 24.7847C80.3 24.1989 80.5136 23.4422 80.5136 22.5146C80.5136 21.5565 80.297 20.7936 79.8637 20.2261C79.4304 19.6525 78.7805 19.3656 77.9139 19.3656C77.322 19.3656 76.8338 19.4999 76.4493 19.7684C76.0709 20.0308 75.7902 20.4 75.6071 20.876C75.4241 21.3459 75.3325 21.8921 75.3325 22.5146C75.3325 23.4727 75.5492 24.2385 75.9824 24.8122C76.4218 25.3797 77.0657 25.6635 77.9139 25.6635Z" fill="#FEFEFE"/>
<path d="M68.604 27.4557V13.9995H70.8101V27.4557H68.604Z" fill="#FEFEFE"/>
<path d="M61.8995 27.7323C60.8987 27.7323 60.0199 27.5156 59.2632 27.0823C58.5065 26.6491 57.9145 26.048 57.4873 25.279C57.0663 24.5101 56.8557 23.6252 56.8557 22.6244C56.8557 21.5443 57.0632 20.6075 57.4782 19.8142C57.8931 19.0147 58.4698 18.3953 59.2083 17.956C59.9467 17.5166 60.801 17.2969 61.7713 17.2969C62.7966 17.2969 63.6662 17.5379 64.3802 18.02C65.1003 18.496 65.6343 19.1704 65.9821 20.043C66.3299 20.9157 66.4611 21.944 66.3757 23.1279H64.1879V22.3223C64.1818 21.2483 63.9927 20.4641 63.6204 19.9698C63.2481 19.4755 62.6623 19.2283 61.8629 19.2283C60.9597 19.2283 60.2884 19.5091 59.849 20.0705C59.4096 20.6258 59.1899 21.4405 59.1899 22.5146C59.1899 23.5154 59.4096 24.2904 59.849 24.8396C60.2884 25.3889 60.9292 25.6635 61.7713 25.6635C62.3145 25.6635 62.7813 25.5445 63.1719 25.3065C63.5685 25.0624 63.8737 24.7115 64.0873 24.2538L66.2659 24.9129C65.8875 25.8038 65.3017 26.4965 64.5083 26.9908C63.7211 27.4851 62.8515 27.7323 61.8995 27.7323ZM58.4943 23.1279V21.4619H65.2956V23.1279H58.4943Z" fill="#FEFEFE"/>
<path d="M49.7325 27.4589L45.5767 14.2773H47.8468L51.3253 25.3169L54.8495 14.2773H57.1197L52.9638 27.4589H49.7325Z" fill="#FEFEFE"/>
<defs>
<clipPath id="clip0_58817_2278">
<rect width="30.6393" height="28" fill="white" transform="translate(9.33203 7)"/>
</clipPath>
</defs>
</svg>
