<svg width="126" height="42" viewBox="0 0 126 42" fill="none" xmlns="http://www.w3.org/2000/svg">
<g clip-path="url(#clip0_58817_2294)">
<path d="M12.832 29.9975V35.0002L29.9526 27.3484V22.3457L12.832 29.9975Z" fill="#FEFEFE"/>
<path d="M12.832 12.0027V7L29.9526 14.6518V19.6545L12.832 12.0027Z" fill="#FEFEFE"/>
<path d="M12.832 19.657V14.6543L29.9526 22.3061V27.3113L12.832 19.657Z" fill="#FEFEFE"/>
</g>
<path d="M105.308 31.0273L107.376 25.3525L107.415 27.0222L102.734 15.5234H105.229L108.548 24.0307H107.912L111.142 15.5234H113.537L107.554 31.0273H105.308Z" fill="#FEFEFE"/>
<path d="M96.1552 31.3248C95.5589 31.3248 94.9858 31.232 94.4359 31.0465C93.8926 30.861 93.4023 30.5927 92.965 30.2415C92.5277 29.897 92.1699 29.4796 91.8916 28.9893L94.098 27.8961C94.3034 28.287 94.5916 28.5752 94.9626 28.7607C95.3403 28.9528 95.7411 29.0489 96.1651 29.0489C96.6621 29.0489 97.106 28.9595 97.4969 28.7806C97.8878 28.6083 98.1893 28.3499 98.4013 28.0054C98.6199 27.6675 98.7226 27.2434 98.7094 26.7333V23.6822H99.0075V15.5228H101.105V26.773C101.105 27.0447 101.091 27.3031 101.065 27.5482C101.045 27.8 101.008 28.0451 100.955 28.2836C100.796 28.9793 100.492 29.5491 100.041 29.9931C99.5906 30.4436 99.0307 30.7782 98.3615 30.9968C97.699 31.2155 96.9635 31.3248 96.1552 31.3248ZM95.9465 26.5544C94.9593 26.5544 94.098 26.3059 93.3625 25.809C92.6271 25.3121 92.0573 24.6363 91.6531 23.7816C91.249 22.9269 91.0469 21.9628 91.0469 20.8895C91.0469 19.8029 91.249 18.8356 91.6531 17.9875C92.0639 17.1328 92.6436 16.4603 93.3923 15.97C94.141 15.4731 95.0222 15.2246 96.0359 15.2246C97.0563 15.2246 97.911 15.4731 98.6 15.97C99.2957 16.4603 99.8225 17.1328 100.18 17.9875C100.538 18.8422 100.717 19.8095 100.717 20.8895C100.717 21.9562 100.538 22.9202 100.18 23.7816C99.8225 24.6363 99.2891 25.3121 98.5802 25.809C97.8712 26.3059 96.9933 26.5544 95.9465 26.5544ZM96.3142 24.4077C96.9569 24.4077 97.4737 24.2619 97.8646 23.9704C98.2621 23.6722 98.5504 23.2581 98.7292 22.7281C98.9148 22.198 99.0075 21.5852 99.0075 20.8895C99.0075 20.1872 98.9148 19.5743 98.7292 19.0509C98.5504 18.5208 98.2688 18.1101 97.8845 17.8185C97.5002 17.5204 97.0033 17.3713 96.3937 17.3713C95.751 17.3713 95.221 17.5303 94.8036 17.8483C94.3862 18.1597 94.0781 18.5838 93.8793 19.1205C93.6805 19.6505 93.5812 20.2402 93.5812 20.8895C93.5812 21.5454 93.6772 22.1417 93.8694 22.6784C94.0681 23.2084 94.3696 23.6292 94.7738 23.9406C95.1779 24.252 95.6914 24.4077 96.3142 24.4077Z" fill="#FEFEFE"/>
<path d="M84.094 26.2572V15.5237H86.2109V18.1375L85.9525 17.7996C86.085 17.4418 86.2606 17.1172 86.4792 16.8256C86.7045 16.5275 86.9728 16.2823 87.2842 16.0902C87.5492 15.9113 87.8408 15.7722 88.1588 15.6728C88.4834 15.5668 88.8147 15.5038 89.1526 15.484C89.4905 15.4575 89.8185 15.4707 90.1365 15.5237V17.7598C89.8185 17.6671 89.4508 17.6373 89.0334 17.6704C88.6226 17.7035 88.2516 17.8195 87.9203 18.0182C87.589 18.1971 87.3173 18.4257 87.1053 18.704C86.8999 18.9823 86.7475 19.3003 86.6482 19.6581C86.5488 20.0092 86.4991 20.3902 86.4991 20.801V26.2572H84.094Z" fill="#FEFEFE"/>
<path d="M77.0193 26.5544C75.9327 26.5544 74.9786 26.3192 74.157 25.8487C73.3354 25.3783 72.6928 24.7257 72.229 23.8909C71.7718 23.0561 71.5432 22.0953 71.5432 21.0088C71.5432 19.836 71.7685 18.819 72.219 17.9577C72.6696 17.0897 73.2957 16.4172 74.0974 15.9402C74.8991 15.4631 75.8267 15.2246 76.8801 15.2246C77.9932 15.2246 78.9374 15.4863 79.7126 16.0097C80.4944 16.5265 81.0741 17.2587 81.4518 18.2061C81.8294 19.1536 81.9719 20.27 81.8791 21.5554H79.5039V20.6808C79.4972 19.5147 79.2918 18.6633 78.8877 18.1266C78.4835 17.5899 77.8475 17.3216 76.9795 17.3216C75.9989 17.3216 75.2701 17.6264 74.7931 18.2359C74.316 18.8389 74.0775 19.7234 74.0775 20.8895C74.0775 21.9761 74.316 22.8175 74.7931 23.4138C75.2701 24.0101 75.9658 24.3083 76.8801 24.3083C77.4698 24.3083 77.9767 24.1791 78.4007 23.9207C78.8314 23.6557 79.1626 23.2747 79.3945 22.7778L81.7599 23.4933C81.3491 24.4607 80.713 25.2127 79.8517 25.7494C78.997 26.286 78.0529 26.5544 77.0193 26.5544ZM73.3222 21.5554V19.7466H80.7064V21.5554H73.3222Z" fill="#FEFEFE"/>
<path d="M67.2954 26.2564V21.0884C67.2954 20.7505 67.2722 20.3762 67.2258 19.9654C67.1795 19.5546 67.0701 19.1604 66.8979 18.7827C66.7322 18.3984 66.4805 18.0837 66.1426 17.8386C65.8113 17.5934 65.3607 17.4709 64.7909 17.4709C64.4862 17.4709 64.1847 17.5205 63.8865 17.6199C63.5884 17.7193 63.3167 17.8916 63.0716 18.1367C62.8331 18.3753 62.6409 18.7065 62.4952 19.1306C62.3494 19.548 62.2765 20.0847 62.2765 20.7406L60.8553 20.1343C60.8553 19.22 61.0309 18.3918 61.3821 17.6497C61.7399 16.9077 62.2633 16.318 62.9523 15.8807C63.6414 15.4368 64.4895 15.2148 65.4966 15.2148C66.2916 15.2148 66.9476 15.3474 67.4644 15.6124C67.9812 15.8774 68.3919 16.2153 68.6967 16.6261C69.0015 17.0369 69.2268 17.4742 69.3725 17.938C69.5183 18.4018 69.6111 18.8424 69.6508 19.2598C69.6972 19.6706 69.7204 20.0051 69.7204 20.2635V26.2564H67.2954ZM59.8516 26.2564V15.5229H61.9883V18.8523H62.2765V26.2564H59.8516Z" fill="#FEFEFE"/>
<path d="M50.1561 31.0273L52.2233 25.3525L52.263 27.0222L47.582 15.5234H50.0766L53.396 24.0307H52.7599L55.9899 15.5234H58.3851L52.4021 31.0273H50.1561Z" fill="#FEFEFE"/>
<path d="M41.1713 26.5559C40.1245 26.5559 39.1803 26.3737 38.3389 26.0093C37.5041 25.6449 36.815 25.1248 36.2717 24.4489C35.735 23.7665 35.3938 22.9582 35.248 22.024L37.7326 21.6463C37.9447 22.4944 38.3786 23.1503 39.0346 23.6141C39.6971 24.0779 40.4591 24.3098 41.3204 24.3098C41.8306 24.3098 42.3109 24.2303 42.7615 24.0713C43.212 23.9123 43.5764 23.6804 43.8547 23.3756C44.1396 23.0708 44.282 22.6965 44.282 22.2526C44.282 22.0538 44.2489 21.8716 44.1827 21.7059C44.1164 21.5337 44.017 21.3813 43.8845 21.2488C43.7586 21.1163 43.593 20.997 43.3876 20.891C43.1888 20.7784 42.9569 20.6823 42.6919 20.6028L38.9948 19.5096C38.6768 19.4168 38.3323 19.2942 37.9612 19.1418C37.5968 18.9828 37.249 18.7675 36.9177 18.4958C36.593 18.2176 36.3247 17.8664 36.1127 17.4424C35.9073 17.0117 35.8046 16.4817 35.8046 15.8522C35.8046 14.9313 36.0365 14.1594 36.5003 13.5366C36.9707 12.9072 37.6001 12.4367 38.3886 12.1253C39.1836 11.8139 40.0649 11.6615 41.0322 11.6682C42.0128 11.6748 42.8874 11.8438 43.6559 12.175C44.4245 12.4997 45.0672 12.9734 45.584 13.5962C46.1008 14.219 46.4652 14.971 46.6772 15.8522L44.1031 16.2995C43.9971 15.7959 43.7917 15.3686 43.487 15.0174C43.1888 14.6596 42.8211 14.388 42.3838 14.2025C41.9531 14.0169 41.4927 13.9176 41.0024 13.9043C40.5253 13.8977 40.0814 13.9706 39.6706 14.123C39.2665 14.2687 38.9385 14.4807 38.6867 14.759C38.4416 15.0373 38.319 15.3619 38.319 15.733C38.319 16.0841 38.425 16.3723 38.637 16.5976C38.8491 16.8163 39.1108 16.9918 39.4222 17.1244C39.7402 17.2502 40.0615 17.3562 40.3862 17.4424L42.9503 18.1579C43.3015 18.2507 43.6957 18.3766 44.133 18.5356C44.5703 18.6946 44.991 18.9166 45.3951 19.2015C45.7993 19.4864 46.1306 19.8607 46.389 20.3245C46.654 20.7883 46.7865 21.378 46.7865 22.0935C46.7865 22.8356 46.6308 23.4882 46.3194 24.0514C46.0146 24.608 45.6005 25.0717 45.0771 25.4428C44.5537 25.8138 43.9541 26.0921 43.2783 26.2776C42.6091 26.4631 41.9068 26.5559 41.1713 26.5559Z" fill="#FEFEFE"/>
<defs>
<clipPath id="clip0_58817_2294">
<rect width="17.1206" height="28" fill="white" transform="translate(12.832 7)"/>
</clipPath>
</defs>
</svg>
