<svg width="126" height="42" viewBox="0 0 126 42" fill="none" xmlns="http://www.w3.org/2000/svg">
<g clip-path="url(#clip0_58817_2244)">
<g clip-path="url(#clip1_58817_2244)">
<path d="M18.3252 8.46966C24.4584 5.02998 33.2202 7.85018 37.8988 14.774C42.5775 21.6979 41.4001 30.0968 35.2703 33.5365C40.4829 30.6137 41.4823 23.4708 37.5052 17.5874C33.5282 11.704 26.0773 9.30477 20.8682 12.2276C15.6556 15.1539 14.6562 22.2934 18.6298 28.1802C22.6068 34.0636 30.0543 36.4628 35.2669 33.5365C29.1337 36.9796 20.3719 34.156 15.6932 27.2322C11.018 20.3117 12.1954 11.9093 18.3252 8.46966Z" fill="#FEFEFE"/>
<path d="M22.8856 10.6938C27.9099 7.87363 35.0905 10.1873 38.9203 15.8585C42.7536 21.5297 41.7884 28.4124 36.7641 31.2326C41.0355 28.8368 41.8535 22.9842 38.5952 18.1653C35.3403 13.3463 29.2345 11.3783 24.9665 13.7741C20.6952 16.1699 19.8772 22.0225 23.1355 26.8449C26.3938 31.6673 32.4962 33.6318 36.7675 31.2326C31.7432 34.0528 24.5627 31.7426 20.7328 26.068C16.8996 20.3968 17.8647 13.5106 22.889 10.6938H22.8856Z" fill="#FEFEFE"/>
<path d="M29.9469 10.4681C35.2724 10.8035 40.1496 15.4308 40.8375 20.8043C41.522 26.1777 37.7606 30.2608 32.4351 29.9288C36.9632 30.2129 40.1599 26.7424 39.578 22.1733C38.9928 17.6042 34.8515 13.6716 30.3234 13.3876C25.7954 13.1035 22.5953 16.574 23.1805 21.1431C23.7658 25.7122 27.9105 29.6447 32.4351 29.9288C27.1096 29.5934 22.2359 24.9661 21.548 19.5927C20.86 14.2192 24.6214 10.1361 29.9504 10.4681H29.9469Z" fill="#FEFEFE"/>
<path d="M35.5311 12.6391C39.7443 15.1684 41.7328 20.3125 39.977 24.1253C38.2178 27.938 33.3783 28.9785 29.1651 26.4492C32.7485 28.5986 36.8625 27.7155 38.3547 24.4744C39.8504 21.2332 38.1562 16.8626 34.5762 14.7098C30.9928 12.5604 26.8788 13.4434 25.3866 16.6846C23.8909 19.9258 25.5817 24.2964 29.1651 26.4458C24.9519 23.9165 22.9634 18.7724 24.7226 14.9596C26.4818 11.1469 31.3213 10.1064 35.5345 12.6357L35.5311 12.6391Z" fill="#FEFEFE"/>
</g>
<path d="M107.647 29.4105C106.889 29.4105 106.247 29.2679 105.722 28.9826C105.196 28.6909 104.798 28.3051 104.525 27.8254C104.26 27.3456 104.127 26.8172 104.127 26.2402C104.127 25.7345 104.211 25.2807 104.38 24.8787C104.548 24.4703 104.807 24.1202 105.158 23.8285C105.508 23.5302 105.961 23.2871 106.519 23.0991C106.94 22.963 107.433 22.8398 107.997 22.7296C108.568 22.6193 109.184 22.5189 109.845 22.4281C110.513 22.3308 111.21 22.2271 111.936 22.1169L111.099 22.5934C111.106 21.8673 110.944 21.3324 110.613 20.9888C110.283 20.6452 109.725 20.4734 108.94 20.4734C108.467 20.4734 108.01 20.5836 107.569 20.804C107.128 21.0245 106.82 21.4037 106.645 21.9419L104.506 21.2708C104.765 20.3826 105.258 19.6695 105.984 19.1314C106.717 18.5933 107.702 18.3242 108.94 18.3242C109.874 18.3242 110.694 18.4766 111.401 18.7813C112.114 19.086 112.642 19.5852 112.986 20.2789C113.174 20.6485 113.287 21.0277 113.326 21.4167C113.365 21.7992 113.385 22.2174 113.385 22.6712V29.1188H111.333V26.8432L111.673 27.2127C111.2 27.9712 110.646 28.5288 110.01 28.8854C109.381 29.2355 108.594 29.4105 107.647 29.4105ZM108.114 27.5434C108.646 27.5434 109.099 27.4493 109.475 27.2613C109.851 27.0733 110.15 26.8432 110.37 26.5709C110.597 26.2986 110.749 26.0425 110.827 25.8026C110.95 25.5044 111.018 25.164 111.031 24.7815C111.051 24.3925 111.061 24.0781 111.061 23.8382L111.78 24.0521C111.073 24.1624 110.467 24.2596 109.962 24.3439C109.456 24.4282 109.022 24.5092 108.658 24.587C108.295 24.6583 107.974 24.7394 107.696 24.8301C107.423 24.9274 107.193 25.0408 107.005 25.1705C106.817 25.3002 106.671 25.4493 106.568 25.6178C106.47 25.7864 106.422 25.9841 106.422 26.211C106.422 26.4704 106.487 26.7005 106.616 26.9015C106.746 27.096 106.934 27.2516 107.18 27.3683C107.433 27.485 107.744 27.5434 108.114 27.5434Z" fill="#FEFEFE"/>
<path d="M99.8034 29.1168V24.0599C99.8034 23.7292 99.7807 23.3629 99.7353 22.961C99.69 22.559 99.583 22.1733 99.4144 21.8037C99.2524 21.4277 99.006 21.1197 98.6753 20.8799C98.3512 20.64 97.9103 20.52 97.3528 20.52C97.0545 20.52 96.7596 20.5687 96.4678 20.6659C96.1761 20.7632 95.9103 20.9317 95.6704 21.1716C95.437 21.405 95.249 21.7292 95.1063 22.1441C94.9637 22.5525 94.8924 23.0777 94.8924 23.7195L93.5017 23.1263C93.5017 22.2316 93.6735 21.4212 94.0172 20.6951C94.3672 19.969 94.8794 19.392 95.5537 18.9641C96.2279 18.5297 97.0578 18.3125 98.0432 18.3125C98.8212 18.3125 99.4631 18.4422 99.9687 18.7015C100.474 18.9608 100.876 19.2915 101.175 19.6934C101.473 20.0954 101.693 20.5233 101.836 20.9771C101.979 21.4309 102.069 21.8621 102.108 22.2705C102.154 22.6725 102.176 22.9999 102.176 23.2527V29.1168H99.8034ZM92.5195 29.1168V18.614H94.6104V21.8718H94.8924V29.1168H92.5195Z" fill="#FEFEFE"/>
<path d="M87.2812 17.0203V14.8711H89.6249V17.0203H87.2812ZM87.2812 29.118V18.6151H89.6249V29.118H87.2812Z" fill="#FEFEFE"/>
<path d="M82.2068 29.1169V22.7375C82.2068 22.0178 82.0285 21.457 81.6719 21.0551C81.3153 20.6466 80.8323 20.4424 80.2229 20.4424C79.8469 20.4424 79.5097 20.5299 79.2115 20.705C78.9133 20.8735 78.6767 21.1264 78.5016 21.4635C78.3266 21.7941 78.239 22.1896 78.239 22.6499L77.1985 22.0373C77.192 21.3112 77.3541 20.6726 77.6847 20.1215C78.0218 19.5639 78.4757 19.1295 79.0462 18.8184C79.6167 18.5072 80.2521 18.3516 80.9523 18.3516C82.1128 18.3516 83.001 18.7017 83.6169 19.4018C84.2392 20.0955 84.5504 21.0097 84.5504 22.1442V29.1169H82.2068ZM69.5742 29.1169V18.6141H71.6456V21.8719H71.9374V29.1169H69.5742ZM75.9051 29.1169V22.7666C75.9051 22.034 75.7268 21.4635 75.3702 21.0551C75.0136 20.6466 74.5274 20.4424 73.9115 20.4424C73.315 20.4424 72.8353 20.6466 72.4722 21.0551C72.1156 21.4635 71.9374 21.9951 71.9374 22.6499L70.8871 21.9497C70.8871 21.269 71.0556 20.6563 71.3928 20.1118C71.7299 19.5672 72.1837 19.1393 72.7542 18.8281C73.3312 18.5104 73.9763 18.3516 74.6895 18.3516C75.4739 18.3516 76.1287 18.5201 76.6539 18.8573C77.1855 19.1879 77.581 19.6417 77.8403 20.2187C78.1061 20.7893 78.239 21.4343 78.239 22.154V29.1169H75.9051Z" fill="#FEFEFE"/>
<path d="M61.3557 29.4195C60.5777 29.4195 59.9359 29.2898 59.4302 29.0305C58.9245 28.7712 58.5225 28.4405 58.2243 28.0386C57.9261 27.6366 57.7057 27.2087 57.563 26.7549C57.4204 26.3011 57.3264 25.8732 57.281 25.4712C57.2421 25.0628 57.2227 24.7321 57.2227 24.4793V18.6152H59.5955V23.6721C59.5955 23.9963 59.6182 24.3626 59.6636 24.771C59.709 25.173 59.8127 25.562 59.9748 25.938C60.1433 26.3076 60.3897 26.6123 60.7139 26.8522C61.0445 27.092 61.4886 27.212 62.0462 27.212C62.3444 27.212 62.6394 27.1634 62.9311 27.0661C63.2229 26.9689 63.4854 26.8035 63.7188 26.5701C63.9587 26.3303 64.15 26.0029 64.2926 25.5879C64.4352 25.173 64.5065 24.6479 64.5065 24.0125L65.8972 24.6057C65.8972 25.5004 65.7222 26.3108 65.3721 27.0369C65.0284 27.7631 64.5195 28.3433 63.8453 28.7777C63.171 29.2056 62.3412 29.4195 61.3557 29.4195ZM64.7886 29.118V25.8602H64.5065V18.6152H66.86V29.118H64.7886Z" fill="#FEFEFE"/>
<path d="M47.2441 29.1151V15.1113H49.5878V26.9173H55.7728V29.1151H47.2441Z" fill="#FEFEFE"/>
</g>
<defs>
<clipPath id="clip0_58817_2244">
<rect width="126" height="42" fill="white"/>
</clipPath>
<clipPath id="clip1_58817_2244">
<rect width="28.4347" height="28" fill="white" transform="translate(12.832 7)"/>
</clipPath>
</defs>
</svg>
